<svg viewBox="0 0 24 24" fill="none"><path d="m18.772 5.066 3.734 13.894H1.492l3.334-5.387s.98-1.387 1.626-1.76c1.016-.587 2.16-.587 2.16-.587H18.8l-1.413-4.8H6.612v-1.36zm-10.156 7.76-.08.005a4 4 0 0 0-.343.044 3 3 0 0 0-.913.308l-.028.016c.021-.012-.044.027-.196.179a7 7 0 0 0-.427.476 12 12 0 0 0-.472.608L4.364 17.36h16.055L19.2 12.826zm-2.485 1.672" fill="currentColor"/><path d="M10.986 15.146a1.067 1.067 0 1 1-2.134 0 1.067 1.067 0 0 1 2.133 0" fill="currentColor"/><path d="M14.186 15.146a1.067 1.067 0 1 1-2.134 0 1.067 1.067 0 0 1 2.133 0" fill="currentColor"/><path d="M17.386 15.146a1.067 1.067 0 1 1-2.134 0 1.067 1.067 0 0 1 2.133 0" fill="currentColor"/></svg>