<svg viewBox="0 0 24 24" fill="none"><g clip-path="url(#clip0_2106_463)"><path d="m23.232 1.899-10.1 10.1 10.1 10.102-1.131 1.131L12 13.132l-10.101 10.1-1.131-1.131L10.868 12 .768 1.899 1.899.768l10.1 10.1L22.102.768z" fill="currentColor"/><path d="M8.606 12 7.55 13.056q-.139.056-.27.127l-.027.016c.021-.012-.044.027-.196.179a7 7 0 0 0-.427.476 12 12 0 0 0-.433.554L1.646 18.96h-.153l3.334-5.387s.98-1.387 1.626-1.76a4.5 4.5 0 0 1 1.454-.512zm-.835 5.36-1.6 1.6H3.91l1.6-1.6zm6.195 0 1.6 1.6H8.434l1.6-1.6zm4.525 0 1.6 1.6H17.83l-1.6-1.6zm4.015 1.6h-.152l-2.057-2.057-1.095-4.076H16.22L15.394 12l.773-.773H18.8l-.6-2.034 1.325-1.325zM13.131 12l.827.827h-3.916l.826-.827-.773-.773h3.81zm5.916-5.916-1.36 1.36-.3-1.017h-.945l1.36-1.36h.971zm-4.868.343H9.821l-1.36-1.36h7.078zm-6.62 0h-.946v-.945z" fill="currentColor"/></g><defs><clipPath id="clip0_2106_463"><rect width="24" height="24" fill="currentColor"/></clipPath></defs></svg>