<svg viewBox="0 0 24 24" fill="none"><g clip-path="url(#clip0_2109_376)"><path d="m23.232 1.899-10.1 10.1 10.1 10.102-1.131 1.131L12 13.132l-10.101 10.1-1.131-1.131L10.868 12 .768 1.899 1.899.768l10.1 10.1L22.102.768z" fill="currentColor"/><path d="M8.065 17.88a7.03 7.03 0 0 0 3.962 1.213c1.454 0 2.805-.44 3.929-1.192l1.149 1.149a8.63 8.63 0 0 1-5.078 1.643 8.63 8.63 0 0 1-5.11-1.665zm-1.374-1.22q.3.347.645.652l-1.124 1.125-.649-.649zm11.746 1.128-.649.649-1.1-1.1q.346-.303.649-.648zm-7.589-.241H8.401v-.003l2.924-2.925zm4.754 0h-2.476l-.493-2.969zm3.426-10.63a8.63 8.63 0 0 1 1.665 5.11c0 1.897-.61 3.65-1.643 5.078l-1.15-1.15a7.03 7.03 0 0 0 1.193-3.928 7.03 7.03 0 0 0-1.214-3.962zM6.152 8.097a7.03 7.03 0 0 0-1.192 3.93c0 1.44.43 2.78 1.17 3.897l-1.15 1.15a8.63 8.63 0 0 1-1.62-5.047c0-1.897.61-3.652 1.643-5.079zm7.514 2.886L12.647 12l1.387 1.386.184 1.199h.045l.109-.86 1.635 1.635-.2 1.097-3.433-3.434-.291-1.755 1.409-1.41zm-1.788.247-.3 1.84L8.2 16.448 8 15.35l1.677-1.678.116.912h.046l.191-1.265 1.32-1.32-.972-.972.171-1.126zm4.33 3.032-1.69-1.689.166-1.312 2.526-2.526zM9.38 11.325l.152 1.198L7.8 14.255 6.792 8.737zm3.94-2.59L12 10.054l-1.28-1.279.2-1.31h2.206zM8.115 7.466l.887.887.189 1.485-2.373-2.372zm6.756 2.31.187-1.484.827-.826h1.297zm-7.507-3.06q-.345.303-.648.647L5.583 6.231q.306-.341.648-.648zm11.072-.505-1.124 1.124a7 7 0 0 0-.652-.645l1.128-1.128zm-6.41-2.852c1.884 0 3.627.6 5.048 1.62l-1.15 1.151a7.03 7.03 0 0 0-3.897-1.171c-1.455 0-2.806.44-3.93 1.192L6.948 5.003a8.63 8.63 0 0 1 5.079-1.643" fill="currentColor"/></g><defs><clipPath id="clip0_2109_376"><rect width="24" height="24" fill="currentColor"/></clipPath></defs></svg>