<svg viewBox="0 0 24 24" fill="none"><path d="M4.09 19.733h1.308l-1.6 1.6H1.535l3.829-3.828z" fill="currentColor"/><path d="m17.47 19.733 1.6 1.6H4.93l1.6-1.6z" fill="currentColor"/><path d="M22.465 21.333h-2.263l-1.6-1.6h1.308l-1.274-2.229z" fill="currentColor"/><path d="m8.956 11.219-2.084 3.646-4.3 4.3 5.211-9.12z" fill="currentColor"/><path d="m21.427 19.165-4.3-4.3-2.083-3.646 1.173-1.173z" fill="currentColor"/><path d="m15.805 9.326-1.172 1.173-.823-1.44 1.172-1.173z" fill="currentColor"/><path d="m10.19 9.059-.823 1.44-1.172-1.173.822-1.44z" fill="currentColor"/><path d="m14.571 7.166-1.173 1.173L12 5.89l-1.4 2.45-1.17-1.174 2.57-4.5z" fill="currentColor"/><path d="m23.232 1.899-10.1 10.1 10.1 10.102-1.131 1.131L12 13.132l-10.101 10.1-1.131-1.131L10.868 12 .768 1.899 1.899.768l10.1 10.1L22.102.768z" fill="currentColor"/></svg>