<svg viewBox="0 0 24 24" fill="none"><g clip-path="url(#clip0_2096_370)"><path d="M13.707 3.316a3.17 3.17 0 0 1 2.56 3.118v3.227h-.002l.002.054v3.2a1.067 1.067 0 0 1-1.334 1.033v.833a1.067 1.067 0 0 1-1.357 1.027 1.067 1.067 0 0 1-2.002.24 1.067 1.067 0 0 1-1.44-.972V9.66h.805a.3.3 0 0 0-.006.054v5.333a.267.267 0 1 0 .534 0V9.715a.3.3 0 0 0-.006-.054h.811a.3.3 0 0 0-.005.054v5.866a.267.267 0 0 0 .533 0V9.715a.3.3 0 0 0-.005-.054h.81a.3.3 0 0 0-.005.054v5.066a.267.267 0 0 0 .533 0V9.715a.3.3 0 0 0-.005-.054h.81a.3.3 0 0 0-.005.054v3.2a.267.267 0 1 0 .534 0v-3.2a.3.3 0 0 0-.006-.054h.006V6.434a2.365 2.365 0 0 0-1.76-2.292z" fill="currentColor"/><path d="M10.347 4.13a2.36 2.36 0 0 0-1.814 2.304v4.614a.267.267 0 1 0 .534 0V8.239a1.067 1.067 0 0 0 1.492-1.031h.8l.001.053c0 .903-.641 1.656-1.493 1.83v1.984a1.067 1.067 0 0 1-2.134-.027V6.434a3.166 3.166 0 0 1 2.614-3.127z" fill="currentColor"/><path d="M2.75 7.046c.107-.087.22-.188.355-.31.45-.406 1.147-1.066 2.241-1.048.676.011 1.192.28 1.587.575V8.38c-.203-.157-.373-.319-.516-.451-.481-.445-.725-.635-1.097-.641-.386-.006-.643.185-1.145.637-.279.251-.648.604-1.156.835L4.6 18.815h14.803l1.569-9.991c-.576-.227-.998-.63-1.297-.902-.488-.446-.737-.634-1.114-.634-.373 0-.619.19-1.111.643-.11.102-.237.221-.382.342V6.17a2.6 2.6 0 0 1 1.493-.482c1.076 0 1.754.651 2.193 1.052.185.17.342.318.48.419l-.087.546.48-3.057H24l-2.773 16H2.773L0 4.648h2.373z" fill="currentColor"/></g><defs><clipPath id="clip0_2096_370"><rect width="24" height="24" fill="currentColor"/></clipPath></defs></svg>