<svg viewBox="0 0 24 24" fill="none"><g clip-path="url(#clip0_2089_601)"><path d="M13.707 2.143a3.17 3.17 0 0 1 2.56 3.118v3.227h-.002l.002.054v3.2a1.067 1.067 0 0 1-1.334 1.033v.833a1.067 1.067 0 0 1-1.357 1.027 1.067 1.067 0 0 1-2.002.24 1.067 1.067 0 0 1-1.44-.972V8.488h.805a.3.3 0 0 0-.006.054v5.333a.267.267 0 1 0 .534 0V8.542a.3.3 0 0 0-.006-.054h.811a.3.3 0 0 0-.005.054v5.866a.267.267 0 1 0 .533 0V8.542a.3.3 0 0 0-.005-.054h.81a.3.3 0 0 0-.005.054v5.066a.267.267 0 1 0 .533 0V8.542a.3.3 0 0 0-.005-.054h.81a.3.3 0 0 0-.005.054v3.2a.267.267 0 0 0 .534 0v-3.2a.3.3 0 0 0-.006-.054h.006V5.261a2.36 2.36 0 0 0-1.76-2.291z" fill="currentColor"/><path d="M10.347 2.957A2.36 2.36 0 0 0 8.533 5.26v4.614a.267.267 0 1 0 .534 0V7.066a1.067 1.067 0 0 0 1.492-1.031h.8l.001.053c0 .903-.641 1.657-1.493 1.83v1.985a1.067 1.067 0 0 1-2.134-.028V5.261a3.166 3.166 0 0 1 2.614-3.127z" fill="currentColor"/><path d="M2.75 5.873a9 9 0 0 0 .355-.31c.45-.406 1.147-1.066 2.241-1.048.676.011 1.192.28 1.587.575v2.117c-.203-.157-.373-.318-.516-.451-.481-.445-.725-.635-1.097-.64-.386-.007-.643.184-1.145.636-.279.252-.648.604-1.156.835L4.6 17.642h14.803l1.569-9.99c-.576-.228-.998-.63-1.297-.903-.488-.445-.737-.634-1.114-.634-.373 0-.619.19-1.111.644-.11.102-.237.22-.382.341V4.997a2.6 2.6 0 0 1 1.493-.482c1.076 0 1.754.651 2.193 1.052.185.17.342.318.48.42l-.087.545.48-3.057H24l-2.773 16H2.773L0 3.475h2.373z" fill="currentColor"/><path d="M21.227 21.075v1.6H2.773v-1.6z" fill="currentColor"/></g><defs><clipPath id="clip0_2089_601"><rect width="24" height="24" fill="currentColor"/></clipPath></defs></svg>