<svg viewBox="0 0 24 24" fill="none"><g clip-path="url(#clip0_2096_454)"><path d="M21.227 20 24 4h-2.373l-2.225 14.167H4.598L2.373 4H0l2.773 16z" fill="currentColor"/><path d="M21.232 6.511c-.137-.101-.294-.25-.48-.419-.438-.4-1.116-1.052-2.192-1.052-1.08 0-1.761.666-2.196 1.067-.491.453-.737.641-1.108.64-.37-.001-.615-.188-1.1-.636-.43-.398-1.103-1.057-2.172-1.07-1.097-.015-1.795.657-2.241 1.062-.506.458-.76.65-1.143.644-.372-.006-.616-.195-1.097-.64-.428-.397-1.094-1.05-2.157-1.067-1.094-.018-1.79.642-2.241 1.048a9 9 0 0 1-.355.31l.27 1.714c.507-.23.876-.583 1.155-.835.502-.452.76-.643 1.145-.637.372.006.616.196 1.097.64.428.397 1.094 1.05 2.157 1.067 1.098.018 1.796-.653 2.243-1.059.506-.459.762-.653 1.146-.648.374.005.62.197 1.108.647.433.4 1.106 1.056 2.18 1.06 1.082.004 1.763-.662 2.198-1.063.492-.454.738-.644 1.111-.644.377 0 .626.189 1.114.634.299.273.721.675 1.297.902z" fill="currentColor"/><path d="M9.717 10.4c1.31 0 2.106.923 2.106 2.473v.007c0 1.553-.803 2.503-2.096 2.503-.994 0-1.737-.576-1.874-1.343l-.006-.027h1.196l.01.024c.107.233.334.406.674.406.603 0 .883-.566.926-1.33.004-.076.007-.156.007-.226h-.023c-.19.456-.65.773-1.3.773-.937 0-1.55-.65-1.55-1.543v-.007c0-1.003.82-1.71 1.93-1.71m.01 2.403c.436 0 .776-.3.776-.726v-.004c0-.416-.336-.73-.766-.73-.427 0-.774.314-.774.72v.007c0 .433.334.733.764.733" fill="currentColor"/><path d="M14.297 15.383c-1.117 0-1.83-.63-1.884-1.443l-.003-.057h1.11l.007.024c.076.3.366.536.77.536.46 0 .783-.31.783-.753v-.007c0-.44-.327-.743-.783-.743a.86.86 0 0 0-.517.157.7.7 0 0 0-.23.256h-1.06l.207-2.866h3.236v.94H13.66l-.097 1.216h.024c.19-.323.583-.533 1.083-.533.907 0 1.563.65 1.563 1.55v.007c0 1.026-.786 1.716-1.936 1.716" fill="currentColor"/></g><defs><clipPath id="clip0_2096_454"><rect width="24" height="24" fill="currentColor"/></clipPath></defs></svg>