<svg viewBox="0 0 24 24" fill="none"><path d="M2.933 21.067h1.132l-1.6 1.6H1.333v-1.132l1.6-1.6zm13.553-1.187A9 9 0 0 1 12 21.067h5.673l1.6 1.6H4.727l1.6-1.6H12a9 9 0 0 1-4.486-1.187l1.182-1.182a7.4 7.4 0 0 0 3.304.769 7.4 7.4 0 0 0 3.304-.77zm6.18 1.655v1.132h-1.13l-1.6-1.6h1.13v-1.132zM2.933 6.327v11.346l-1.6 1.6V4.727zm19.734 12.945-1.6-1.6V6.327l1.6-1.6zM6.185 16.684a7.5 7.5 0 0 0 1.131 1.131L6.18 18.952a9 9 0 0 1-1.131-1.132zm12.767 1.136q-.517.616-1.132 1.132l-1.136-1.137a7.5 7.5 0 0 0 1.131-1.131zM5.302 8.696A7.4 7.4 0 0 0 4.533 12c0 1.186.277 2.308.77 3.304l-1.184 1.182A9 9 0 0 1 2.933 12c0-1.632.432-3.164 1.186-4.487zM19.88 7.514A9 9 0 0 1 21.067 12a9 9 0 0 1-1.187 4.486l-1.182-1.183A7.4 7.4 0 0 0 19.466 12a7.4 7.4 0 0 0-.768-3.304zm-2.06-2.466q.616.516 1.132 1.131l-1.137 1.137a7.5 7.5 0 0 0-1.131-1.131zM7.316 6.185a7.5 7.5 0 0 0-1.131 1.131L5.048 6.179q.516-.616 1.131-1.131zM12 2.933c1.632 0 3.163.432 4.486 1.186l-1.182 1.183A7.4 7.4 0 0 0 12 4.533a7.4 7.4 0 0 0-3.304.77L7.514 4.118A9 9 0 0 1 12 2.933m10.667-.468-1.6 1.6V2.933h-1.132l1.6-1.6h1.131zm-18.602.468H2.933v1.131l-1.6-1.6v-1.13h1.132zm13.607 0H6.327l-1.6-1.6h14.546z" fill="currentColor"/><path d="m23.232 1.899-10.1 10.1 10.1 10.102-1.131 1.131L12 13.132l-10.101 10.1-1.131-1.131L10.868 12 .768 1.899 1.899.768l10.1 10.1L22.102.768z" fill="currentColor"/></svg>