<svg viewBox="0 0 24 24" fill="none"><path d="m21.227 17.866 2.773-16h-2.373l-2.225 14.167H4.598L2.373 1.866H0l2.773 16z" fill="currentColor"/><path d="M21.232 4.377c-.137-.1-.294-.25-.48-.418-.438-.401-1.116-1.053-2.192-1.053-1.08 0-1.761.667-2.196 1.067-.491.454-.737.641-1.108.64-.37-.001-.615-.188-1.1-.636-.43-.397-1.103-1.057-2.172-1.07-1.097-.015-1.795.657-2.241 1.062-.506.458-.76.65-1.143.644-.372-.006-.616-.195-1.097-.64-.428-.397-1.094-1.05-2.157-1.066-1.094-.018-1.79.641-2.241 1.048-.135.121-.248.223-.355.31l.27 1.713c.507-.23.876-.583 1.155-.835.502-.452.76-.643 1.145-.637.372.006.616.196 1.097.64.428.397 1.094 1.05 2.157 1.067 1.098.018 1.796-.653 2.243-1.059.506-.459.762-.653 1.146-.648.374.005.62.197 1.108.647.433.4 1.106 1.057 2.18 1.06 1.082.004 1.763-.662 2.198-1.063.492-.454.738-.644 1.111-.644.377 0 .626.189 1.114.634.299.273.721.675 1.297.902z" fill="currentColor"/><path d="M10.003 13.163v-.82H7.627v-.997L9.46 8.353h1.7v3.04h.61v.95h-.61v.82zM8.65 11.436h1.387v-2.24h-.027l-1.36 2.207z" fill="currentColor"/><path d="M14.273 13.25c-1.28 0-2.063-.957-2.063-2.49v-.007c0-1.533.783-2.487 2.063-2.487s2.06.954 2.06 2.487v.006c0 1.534-.78 2.49-2.06 2.49m0-.957c.53 0 .824-.557.824-1.533v-.007c0-.977-.294-1.53-.824-1.53s-.826.553-.826 1.53v.006c0 .977.296 1.534.826 1.534" fill="currentColor"/><path d="M21.227 18.94v1.6H2.773v-1.6z" fill="currentColor"/><path d="M21.227 21.333v1.6H2.773v-1.6z" fill="currentColor"/></svg>