<svg viewBox="0 0 24 24" fill="none"><g clip-path="url(#clip0_2089_587)"><path d="M6.965 18.167 5.13 20H2.87l1.833-1.833z" fill="currentColor"/><path d="M15.904 18.167 17.737 20H6.263l1.833-1.833z" fill="currentColor"/><path d="M19.298 18.167 21.131 20H18.87l-1.834-1.833z" fill="currentColor"/><path d="m21.38 19.117-1.839-1.838 1.43-9.103c-.576-.227-.998-.63-1.297-.902a8 8 0 0 0-.366-.32l1.137-1.137c.114.097.216.192.308.275.185.17.342.318.48.419l-.087.546.362-2.303.755-.754H24z" fill="currentColor"/><path d="m2.492 4.754.258 1.644a9 9 0 0 0 .355-.31c.112-.1.24-.218.384-.336l1.142 1.142a6 6 0 0 0-.456.383c-.279.252-.648.604-1.156.835l1.44 9.166-1.839 1.839L0 4h1.737z" fill="currentColor"/><path d="M5.346 5.04a2.5 2.5 0 0 1 1.093.268l2.926 2.926c-.238.074-.5.117-.791.113-1.063-.018-1.729-.67-2.157-1.066-.382-.354-.615-.546-.88-.613L4.173 5.304c.33-.16.717-.271 1.173-.264" fill="currentColor"/><path d="M18.56 5.04c.482 0 .884.13 1.22.311l-1.292 1.292c-.334.023-.58.216-1.039.64-.435.402-1.117 1.067-2.198 1.064-.233 0-.447-.033-.644-.086l3.056-3.055c.263-.101.56-.166.897-.166" fill="currentColor"/><path d="M11.984 5.04c1.07.014 1.741.673 2.172 1.07.376.348.607.538.864.607l-1.19 1.191c-.313-.203-.56-.439-.758-.621-.487-.45-.734-.642-1.108-.647-.384-.005-.64.189-1.146.648-.185.168-.413.381-.694.572L8.949 6.686c.228-.088.454-.276.793-.583.447-.405 1.145-1.077 2.242-1.063" fill="currentColor"/><path d="m23.232 1.899-10.1 10.1 10.1 10.102-1.131 1.131-10.1-10.1-10.102 10.1-1.131-1.131L10.868 12 .769 1.899 1.899.768 12 10.868 22.101.768z" fill="currentColor"/></g><defs><clipPath id="clip0_2089_587"><rect width="24" height="24" fill="currentColor"/></clipPath></defs></svg>