<svg viewBox="0 0 24 24" fill="none"><g clip-path="url(#clip0_2109_346)"><path d="M19.093 10a7.067 7.067 0 1 0-7.066 7.066v1.6a8.667 8.667 0 1 1 0-17.333 8.667 8.667 0 0 1 0 17.333v-1.6A7.067 7.067 0 0 0 19.093 10" fill="currentColor"/><path d="M8.403 14.023 6.56 6.933h2.33l.906 5.007h.045l1.081-5.007h2.207l1.094 5.007h.045l.899-5.007h2.278l-1.829 7.09H13.13L12.003 9.25h-.046l-1.107 4.772z" fill="currentColor"/><path d="M21.227 19.466v1.6H2.773v-1.6z" fill="currentColor"/><path d="M21.227 21.866v1.6H2.773v-1.6z" fill="currentColor"/></g><defs><clipPath id="clip0_2109_346"><rect width="24" height="24" fill="currentColor"/></clipPath></defs></svg>