<svg viewBox="0 0 24 24" fill="none"><g clip-path="url(#clip0_2106_470)"><path d="M18.774.106 22.507 14H1.494l3.333-5.387s.981-1.387 1.627-1.76c1.016-.587 2.16-.587 2.16-.587h10.187l-1.413-4.8H6.614V.106zM8.618 7.866l-.08.005a4 4 0 0 0-.343.044 3 3 0 0 0-.913.308l-.028.016c.021-.012-.044.027-.196.179a7 7 0 0 0-.427.476 12 12 0 0 0-.466.6l-.006.008L4.366 12.4H20.42l-1.218-4.534zM6.133 9.539" fill="currentColor"/><path d="m17.92 13.764-4.795 4.796 4.796 4.796-.537.537-4.796-4.796-4.797 4.796-.537-.537 4.796-4.796-4.796-4.796.537-.538 4.797 4.797 4.796-4.797z" fill="currentColor"/><path d="M11.215 21.6c.376.407.864.666 1.4.666.509 0 1.017-.23 1.425-.585l.643.642c-.564.51-1.291.85-2.069.85-.83 0-1.525-.383-2.04-.932zm4.452-.498-.098.004a3.5 3.5 0 0 1-.354.619l-.652-.652c.111-.176.2-.364.26-.556l.062-.197zm-5.07-.587q.067.213.162.41l-.668.668a4 4 0 0 1-.243-.488 4 4 0 0 1-.317-.026l.903-.903.056-.004zm5.263-3.56a2.454 2.454 0 0 1 1.848 2.378c0 .33-.06.627-.194.883-.137.26-.337.452-.573.586q-.144.082-.305.138l-.761-.762c.27-.028.473-.081.617-.163a.53.53 0 0 0 .219-.22c.05-.095.09-.24.09-.462 0-.854-.693-1.547-1.547-1.547v-.224zm-5.94.607v.224c-.853 0-1.546.693-1.546 1.547 0 .303.172.507.521.66.14.062.296.107.451.14l-.728.727-.087-.037c-.529-.231-1.064-.688-1.064-1.49 0-1.145.786-2.108 1.847-2.378zm3.258.944-.053.054.746.746h-1.074l-.21-.209-.209.21h-1.074l.746-.747-.053-.054zm1.534.51-.456-.456.356-.356zm-3.793-.456-.395.395.086-.704zm.655-1.55-.114.959-.726-.726.117-.956zm2.914.186-.717.718-.103-.972.703-.703zm-2.793-1.197-.72-.72.16-1.306h.803zm2.552-.768-.688.688-.206-1.946h.74z" fill="currentColor"/><path d="M13.92 10.186a1.067 1.067 0 1 1-2.133 0 1.067 1.067 0 0 1 2.134 0" fill="currentColor"/></g><defs><clipPath id="clip0_2106_470"><rect width="24" height="24" fill="currentColor"/></clipPath></defs></svg>