<svg viewBox="0 0 24 24" fill="none"><path d="M19.093 11.226a7.067 7.067 0 1 0-7.066 7.067v1.6a8.667 8.667 0 1 1 0-17.333 8.667 8.667 0 0 1 0 17.333v-1.6a7.067 7.067 0 0 0 7.066-7.067" fill="currentColor"/><path d="M21.227 20.693v1.6H2.773v-1.6z" fill="currentColor"/><path d="M8.853 15.9V6.507h4.004c2.097 0 3.45 1.315 3.45 3.327v.013c0 2.012-1.353 3.3-3.45 3.3h-1.614v2.755zm3.431-7.564h-1.041v3.014h1.041c1.01 0 1.608-.527 1.608-1.504v-.013c0-.976-.598-1.497-1.608-1.497" fill="currentColor"/></svg>