<svg viewBox="0 0 24 24" fill="none"><g clip-path="url(#clip0_2109_364)"><path d="M8.986 18.408c.921.44 1.952.685 3.04.685a7 7 0 0 0 3.005-.668l1.188 1.188a8.6 8.6 0 0 1-4.193 1.08A8.6 8.6 0 0 1 7.8 19.594zm9.708-.845c-.341.41-.72.79-1.131 1.131l-1.137-1.137a7 7 0 0 0 1.131-1.131zM6.472 16.396c.331.42.71.802 1.126 1.137L6.46 18.67a8.7 8.7 0 0 1-1.126-1.136zM19.594 7.8a8.6 8.6 0 0 1 1.1 4.227c0 1.52-.393 2.95-1.08 4.192l-1.19-1.189a7 7 0 0 0 .67-3.003 7.04 7.04 0 0 0-.687-3.04zM5.628 9.022a7 7 0 0 0-.668 3.005c0 1.06.233 2.065.651 2.967l-1.19 1.19a8.6 8.6 0 0 1-1.061-4.157c0-1.521.392-2.95 1.08-4.193zm2-2.526a7 7 0 0 0-1.132 1.131L5.359 6.49c.341-.41.72-.79 1.131-1.131zm9.906-1.161q.62.511 1.136 1.126l-1.137 1.137a7 7 0 0 0-1.137-1.126zM12.027 3.36c1.506 0 2.923.385 4.158 1.06l-1.19 1.191a7 7 0 0 0-2.968-.651 7 7 0 0 0-3.004.668L7.834 4.44a8.6 8.6 0 0 1 4.193-1.08" fill="currentColor"/><path d="m23.232 1.899-10.1 10.1 10.1 10.102-1.131 1.131L12 13.132l-10.101 10.1-1.131-1.131L10.868 12 .768 1.899 1.899.768l10.1 10.1L22.102.768z" fill="currentColor"/></g><defs><clipPath id="clip0_2109_364"><rect width="24" height="24" fill="currentColor"/></clipPath></defs></svg>